# xmcd
#
# Track frame offsets:
#	150
#	22656
#	37742
#	52070
#	72806
#	80277
#	103184
#	127231
#	151843
#	169617
#	195537
#	208736
#	224859
#	247026
#	263198
#	286221
#	296870
#	321505
#
# Disc length: 4621 seconds
#
# Revision: 1
# Processed by: cddbd v1.5.2PL0 Copyright (c) Steve Scherf et al.
# Submitted via: audiograbber 1.83.01
#
DISCID=14120b12
DTITLE=Rod Piazza - Real Blues
DYEAR=1900
DGENRE=Blues
TTITLE0=Talk to Your Daughter
TTITLE1=Hydramatic Woman
TTITLE2=Deep Fried
TTITLE3=Too Tired
TTITLE4=Feeling Good
TTITLE5=Brought Together By The Blues
TTITLE6=They want Money
TTITLE7=Buzzin'
TTITLE8=Key To The Highway
TTITLE9=I can't Quit you baby
TTITLE10=Hard Work Boogie
TTITLE11=Sharp Harp
TTITLE12=Blue Midnight
TTITLE13=Lovin' Daddy Blues
TTITLE14=Power Of The Blues
TTITLE15=The Bounce
TTITLE16=Hang-Ten Boogie
TTITLE17=4811 Wadsworth
EXTD=
EXTT0=
EXTT1=
EXTT2=
EXTT3=
EXTT4=
EXTT5=
EXTT6=
EXTT7=
EXTT8=
EXTT9=
EXTT10=
EXTT11=
EXTT12=
EXTT13=
EXTT14=
EXTT15=
EXTT16=
EXTT17=
PLAYORDER=
